# File created by Blade
# Date/Time:  Wed Jan 21 17:47:32 2015
# Frame Rate: 120.000 fps
#------------------------------------------------------
:FULLY-SPECIFIED
:DEGREES
890
root 15.823431 31.459374 -18.869045 -116.255321 72.148431 -176.823581
Spine 74.653280 -27.488537 -32.110342
Head -11.917722 -57.631197 51.043825
LeftShoulder 28.168820 -45.812367 18.927393
LeftArm 30.775535 18.637097 -5.242459
LeftForeArm 12.055855 -0.000000 0.317594
LeftHand 5.617755 -0.000000 5.963361
LeftHandThumb1 -26.253704 0.000000 33.147579
RightShoulder -20.112586 -14.595720 0.104773
RightArm -41.664018 39.414094 20.179715
RightForeArm 3.560848 -0.000000 8.533052
RightHand -20.455341 -0.000000 -23.112414
RightHandThumb1 -24.326973 -0.000000 -32.862282
LeftUpLeg -35.401553 24.251320 -14.746096
LeftLeg -1.356765 -0.000000 0.000000
LeftFoot -41.342128 19.603319 -21.549615
LeftToeBase 24.508073 -0.000000 -0.000000
RightUpLeg -85.106359 0.747236 6.585676
RightLeg -8.490832 -0.000000 0.000000
RightFoot 15.029599 -22.754762 6.446290
RightToeBase 29.436237 -0.000000 -0.000000
891
root 15.808039 31.461791 -18.862798 -117.077545 72.081043 -177.426730
Spine 74.439661 -27.136530 -31.796079
Head -11.621007 -57.473185 50.849814
LeftShoulder 28.145571 -46.168685 18.601555
LeftArm 31.887270 18.405527 -5.675980
LeftForeArm 11.597137 -0.000000 0.733979
LeftHand 5.694415 -0.000000 7.108318
LeftHandThumb1 -26.253704 0.000000 33.147579
RightShoulder -19.826493 -14.450692 0.197704
RightArm -41.966288 39.538952 19.564038
RightForeArm 3.720096 0.000000 8.549827
RightHand -20.533016 -0.000000 -23.365653
RightHandThumb1 -24.326973 -0.000000 -32.862282
LeftUpLeg -35.186772 24.156024 -14.705681
LeftLeg -1.290334 -0.000000 0.000000
LeftFoot -41.339825 19.610354 -21.523849
LeftToeBase 24.425446 -0.000000 -0.000000
RightUpLeg -84.798733 0.499945 6.462659
RightLeg -8.695084 -0.000000 0.000000
RightFoot 15.094495 -22.722207 6.496811
RightToeBase 29.591850 -0.000000 -0.000000
892
root 15.789013 31.464107 -18.858557 -118.087297 72.001514 -178.175242
Spine 74.225355 -26.797041 -31.436387
Head -11.279881 -57.285209 50.497266
LeftShoulder 28.253554 -46.529374 18.151833
LeftArm 32.811743 18.005380 -6.266263
LeftForeArm 10.709551 -0.000000 1.378983
LeftHand 5.792429 -0.000000 8.414848
LeftHandThumb1 -26.253704 0.000000 33.147579
RightShoulder -19.509482 -14.198570 0.120135
RightArm -42.519699 39.663785 18.845748
RightForeArm 3.856735 0.000000 8.709345
RightHand -20.548872 -0.000000 -23.740802
RightHandThumb1 -24.326973 -0.000000 -32.862282
LeftUpLeg -34.912143 23.984687 -14.632000
LeftLeg -1.205555 -0.000000 0.000000
LeftFoot -41.344717 19.641599 -21.509202
LeftToeBase 24.443519 -0.000000 -0.000000
RightUpLeg -84.437623 0.200823 6.264402
RightLeg -8.922078 -0.000000 0.000000
RightFoot 15.151604 -22.775605 6.653236
RightToeBase 29.632477 -0.000000 -0.000000
893
root 15.766332 31.467127 -18.852914 -119.123292 71.914817 -178.927783
Spine 73.929059 -26.405420 -31.002069
Head -10.777349 -57.133899 50.010148
LeftShoulder 28.589797 -46.869018 17.632693
LeftArm 33.409531 17.226967 -7.224028
LeftForeArm 10.159373 -0.000000 2.221423
LeftHand 5.858429 -0.000000 10.107933
LeftHandThumb1 -26.253704 0.000000 33.147579
RightShoulder -19.173970 -14.136316 0.049850
RightArm -42.966309 39.876557 18.263806
RightForeArm 4.068636 0.000000 8.869320
RightHand -20.708709 0.000000 -24.197992
RightHandThumb1 -24.326973 -0.000000 -32.862282
LeftUpLeg -34.634622 23.828188 -14.552868
LeftLeg -1.092246 -0.000000 0.000000
LeftFoot -41.354980 19.633338 -21.500118
LeftToeBase 24.409995 -0.000000 -0.000000
RightUpLeg -84.095401 -0.101429 6.133583
RightLeg -9.066923 -0.000000 0.000000
RightFoot 15.224025 -22.744998 6.633440
RightToeBase 29.667039 -0.000000 -0.000000
894
root 15.740943 31.469706 -18.846137 -120.194318 71.804494 -179.708169
Spine 73.630378 -26.011950 -30.501793
Head -10.458898 -56.821745 49.618227
LeftShoulder 28.879656 -47.111271 17.120818
LeftArm 34.048551 16.165786 -8.268831
LeftForeArm 9.403489 0.000000 3.053217
LeftHand 6.210098 -0.000000 11.673943
LeftHandThumb1 -26.253704 0.000000 33.147579
RightShoulder -18.965781 -14.073621 -0.053054
RightArm -43.080756 40.019948 17.934417
RightForeArm 4.410148 -0.000000 8.948686
RightHand -20.804580 -0.000000 -24.681819
RightHandThumb1 -24.326973 -0.000000 -32.862282
LeftUpLeg -34.351543 23.648025 -14.448174
LeftLeg -0.967393 -0.000000 0.000000
LeftFoot -41.373660 19.642880 -21.481784
LeftToeBase 24.367000 -0.000000 -0.000000
RightUpLeg -83.789300 -0.413080 6.135160
RightLeg -9.161007 -0.000000 0.000000
RightFoot 15.160175 -22.769358 6.931855
RightToeBase 29.880906 -0.000000 -0.000000
895
root 15.715476 31.473547 -18.839713 -121.148441 71.687834 -180.352206
Spine 73.347225 -25.580821 -29.978800
Head -10.256698 -56.454841 49.322504
LeftShoulder 28.849973 -47.085765 16.951684
LeftArm 34.804721 14.694636 -9.478139
LeftForeArm 8.837559 0.000000 3.799024
LeftHand 6.710137 -0.000000 13.437441
LeftHandThumb1 -26.253704 0.000000 33.147579
RightShoulder -18.830379 -13.974476 -0.149455
RightArm -42.896329 40.085269 17.787651
RightForeArm 4.740917 0.000000 9.002739
RightHand -20.922322 -0.000000 -25.143636
RightHandThumb1 -24.326973 -0.000000 -32.862282
LeftUpLeg -34.063248 23.510233 -14.321742
LeftLeg -0.842233 -0.000000 0.000000
LeftFoot -41.367065 19.608963 -21.420531
LeftToeBase 24.370056 -0.000000 -0.000000
RightUpLeg -83.456897 -0.692821 6.189990
RightLeg -9.244644 -0.000000 0.000000
RightFoot 15.169994 -22.781507 7.202514
RightToeBase 29.713061 -0.000000 -0.000000
896
root 15.688153 31.478698 -18.833940 -122.184719 71.508332 -181.116234
Spine 73.061451 -25.222675 -29.470089
Head -9.924811 -55.975313 48.932914
LeftShoulder 28.634448 -46.756895 16.861662
LeftArm 35.862047 13.255849 -10.342597
LeftForeArm 8.700943 -0.000000 4.467049
LeftHand 6.875393 -0.000000 13.974378
LeftHandThumb1 -26.253704 0.000000 33.147579
RightShoulder -18.599575 -13.742219 -0.280908
RightArm -42.773929 40.081454 17.508772
RightForeArm 4.790494 -0.000000 9.109054
RightHand -21.124742 -0.000000 -25.276248
RightHandThumb1 -24.326973 -0.000000 -32.862282
LeftUpLeg -33.805290 23.306340 -14.186123
LeftLeg -0.717868 -0.000000 0.000000
LeftFoot -41.363806 19.549041 -21.413110
LeftToeBase 24.402753 -0.000000 -0.000000
RightUpLeg -83.182830 -1.036292 6.277025
RightLeg -9.290826 -0.000000 0.000000
RightFoot 15.137609 -22.722149 7.225557
RightToeBase 29.730834 -0.000000 -0.000000
897
root 15.661402 31.481977 -18.829697 -123.189555 71.316155 -181.826900
Spine 72.678644 -24.809183 -28.767816
Head -9.773736 -55.640144 48.677860
LeftShoulder 28.588292 -46.350875 16.691003
LeftArm 36.993865 11.871208 -11.203422
LeftForeArm 9.031234 -0.000000 4.986706
LeftHand 7.231594 -0.000000 15.343600
LeftHandThumb1 -26.253704 0.000000 33.147579
RightShoulder -18.523714 -13.680638 -0.356166
RightArm -42.417655 40.165076 17.424968
RightForeArm 4.883821 -0.000000 9.132285
RightHand -21.074844 0.000000 -25.377448
RightHandThumb1 -24.326973 -0.000000 -32.862282
LeftUpLeg -33.528045 23.163180 -14.065471
LeftLeg -0.616103 -0.000000 0.000000
LeftFoot -41.327402 19.445856 -21.356878
LeftToeBase 24.446786 -0.000000 -0.000000
RightUpLeg -82.872058 -1.376489 6.387701
RightLeg -9.387511 -0.000000 0.000000
RightFoot 15.170160 -22.689745 7.245395
RightToeBase 29.766753 -0.000000 -0.000000
